# xmcd CD database file
#
# Track frame offsets:
#	150
#	18010
#	37128
#	57850
#	81213
#	97595
#	116583
#	139430
#	157083
#	182160
#	200595
#	224600
#
# Disc length: 3290 seconds
#
# Revision: 2
# Processed by: cddbd v1.5PL3 Copyright (c) Steve Scherf et al.
# Submitted via: CDex 1.50
#
DISCID=a90cd80c
DTITLE=PEALOUT - WILL
DYEAR=1900
DGENRE=Rock
TTITLE0=GOODBYEBLE
TTITLE1=真逆の心臓
TTITLE2=THE SHIVER CHEERS
TTITLE3=追憶の旋律
TTITLE4=PLANET ANIMALS
TTITLE5=ひとかけらの宇宙
TTITLE6=SOULRIDER [album mix]
TTITLE7=透明の地球儀
TTITLE8=A BEAUTIFUL DAY
TTITLE9=STAY FREE
TTITLE10=沈黙の開拓者
TTITLE11=旅人の歌
EXTD=
EXTT0=
EXTT1=
EXTT2=
EXTT3=
EXTT4=
EXTT5=
EXTT6=
EXTT7=
EXTT8=
EXTT9=
EXTT10=
EXTT11=
PLAYORDER=
